<?xml version="1.0" encoding="iso-8859-1"?>
<!-- Uploaded to: SVG Repo, www.svgrepo.com, Generator: SVG Repo Mixer Tools -->
<svg fill="#000000" height="800px" width="800px" version="1.1" id="Layer_1" xmlns="http://www.w3.org/2000/svg" xmlns:xlink="http://www.w3.org/1999/xlink" 
	 viewBox="0 0 512 512" xml:space="preserve">
<g transform="translate(1 1)">
	<g>
		<g>
			<path d="M212.333,353.133h34.133h17.067h34.133h17.067h34.133h17.067h51.2h25.6c5.12,0,8.533-3.413,8.533-8.533
				s-3.413-8.533-8.533-8.533h-25.6V148.333h-51.2V114.2h-68.267v59.733h-51.2v51.2h-34.133v-76.8h-68.267v51.2h-51.2v136.533h-25.6
				c-5.12,0-8.533,3.413-8.533,8.533s3.413,8.533,8.533,8.533h25.6h51.2h17.067h34.133H212.333z M400.067,165.4v170.667h-34.133
				V165.4H400.067z M314.733,156.867V139.8c5.12,0,8.533-3.413,8.533-8.533h17.067c0,5.12,3.413,8.533,8.533,8.533v8.533v8.533
				c-5.12,0-8.533,3.413-8.533,8.533c0,5.12,3.413,8.533,8.533,8.533V191c-5.12,0-8.533,3.413-8.533,8.533s3.413,8.533,8.533,8.533
				v17.067c-5.12,0-8.533,3.413-8.533,8.533c0,5.12,3.413,8.533,8.533,8.533v17.067c-5.12,0-8.533,3.413-8.533,8.533
				s3.413,8.533,8.533,8.533V293.4c-5.12,0-8.533,3.413-8.533,8.533s3.413,8.533,8.533,8.533v17.067
				c-5.12,0-8.533,3.413-8.533,8.533h-17.067c0-5.12-3.413-8.533-8.533-8.533v-17.067c5.12,0,8.533-3.413,8.533-8.533
				s-3.413-8.533-8.533-8.533v-17.067c5.12,0,8.533-3.413,8.533-8.533s-3.413-8.533-8.533-8.533V242.2
				c5.12,0,8.533-3.413,8.533-8.533c0-5.12-3.413-8.533-8.533-8.533v-17.067c5.12,0,8.533-3.413,8.533-8.533
				S319.853,191,314.733,191v-17.067c5.12,0,8.533-3.413,8.533-8.533C323.267,160.28,319.853,156.867,314.733,156.867z M263.533,191
				h34.133v145.067h-34.133V225.133V191z M246.467,242.2v93.867h-34.133V242.2H246.467z M109.933,336.067V216.6h34.133v119.467
				H109.933z M161.133,336.067V199.533V165.4h34.133v59.733v110.933H161.133z"/>
			<path d="M331.8,156.867c5.12,0,8.533-3.413,8.533-8.533s-3.413-8.533-8.533-8.533c-5.12,0-8.533,3.413-8.533,8.533
				S326.68,156.867,331.8,156.867z"/>
			<path d="M331.8,191c5.12,0,8.533-3.413,8.533-8.533s-3.413-8.533-8.533-8.533c-5.12,0-8.533,3.413-8.533,8.533
				S326.68,191,331.8,191z"/>
			<path d="M331.8,208.067c-5.12,0-8.533,3.413-8.533,8.533s3.413,8.533,8.533,8.533c5.12,0,8.533-3.413,8.533-8.533
				S336.92,208.067,331.8,208.067z"/>
			<path d="M331.8,242.2c-5.12,0-8.533,3.413-8.533,8.533s3.413,8.533,8.533,8.533c5.12,0,8.533-3.413,8.533-8.533
				S336.92,242.2,331.8,242.2z"/>
			<path d="M331.8,276.333c-5.12,0-8.533,3.413-8.533,8.533c0,5.12,3.413,8.533,8.533,8.533c5.12,0,8.533-3.413,8.533-8.533
				C340.333,279.747,336.92,276.333,331.8,276.333z"/>
			<path d="M331.8,310.467c-5.12,0-8.533,3.413-8.533,8.533s3.413,8.533,8.533,8.533c5.12,0,8.533-3.413,8.533-8.533
				S336.92,310.467,331.8,310.467z"/>
			<path d="M502.467,370.2h-25.6V105.667c0-14.507-11.093-25.6-25.6-25.6H58.733c-14.507,0-25.6,11.093-25.6,25.6V370.2h-25.6
				c-5.12,0-8.533,3.413-8.533,8.533v25.6c0,14.507,11.093,25.6,25.6,25.6h460.8c14.507,0,25.6-11.093,25.6-25.6v-25.6
				C511,373.613,507.587,370.2,502.467,370.2z M50.2,105.667c0-5.12,3.413-8.533,8.533-8.533h392.533
				c5.12,0,8.533,3.413,8.533,8.533V370.2H323.267c-5.12,0-8.533,3.413-8.533,8.533v8.533H195.267v-8.533
				c0-5.12-3.413-8.533-8.533-8.533H50.2V105.667z M493.933,404.333c0,5.12-3.413,8.533-8.533,8.533H24.6
				c-5.12,0-8.533-3.413-8.533-8.533v-17.067h25.6H178.2v8.533c0,5.12,3.413,8.533,8.533,8.533h136.533
				c5.12,0,8.533-3.413,8.533-8.533v-8.533h136.533h25.6V404.333z"/>
		</g>
	</g>
</g>
</svg>