<?xml version="1.0" encoding="iso-8859-1"?>
<!-- Uploaded to: SVG Repo, www.svgrepo.com, Generator: SVG Repo Mixer Tools -->
<!DOCTYPE svg PUBLIC "-//W3C//DTD SVG 1.1//EN" "http://www.w3.org/Graphics/SVG/1.1/DTD/svg11.dtd">
<svg fill="#000000" height="800px" width="800px" version="1.1" id="Capa_1" xmlns="http://www.w3.org/2000/svg" xmlns:xlink="http://www.w3.org/1999/xlink" 
	 viewBox="0 0 327.168 327.168" xml:space="preserve">
<g>
	<path d="M228.545,43.561c0-2.761-2.238-5-5-5H82.111c-2.762,0-5,2.239-5,5s2.238,5,5,5h141.435
		C226.307,48.561,228.545,46.322,228.545,43.561z"/>
	<path d="M65.922,48.561c2.762,0,5-2.239,5-5s-2.238-5-5-5h-8.52c-2.762,0-5,2.239-5,5s2.238,5,5,5H65.922z"/>
	<path d="M41.214,48.561c2.762,0,5-2.239,5-5s-2.238-5-5-5h-6.816c-2.762,0-5,2.239-5,5s2.238,5,5,5H41.214z"/>
	<path d="M116.89,144.838c2.762,0,5-2.239,5-5V74.233c0-2.761-2.238-5-5-5H36.954c-2.762,0-5,2.239-5,5v125.246c0,2.761,2.238,5,5,5
		h79.936c2.762,0,5-2.239,5-5v-36.637c0-2.761-2.238-5-5-5s-5,2.239-5,5v31.637H41.954V79.233h69.936v60.605
		C111.89,142.6,114.128,144.838,116.89,144.838z"/>
	<path d="M146.864,288.828H226.8c2.762,0,5-2.239,5-5v-48.199c0-2.761-2.238-5-5-5h-79.937c-2.762,0-5,2.239-5,5v48.199
		C141.864,286.589,144.102,288.828,146.864,288.828z M151.864,240.629H221.8v38.199h-69.937V240.629z"/>
	<path d="M116.89,221.232H36.954c-2.762,0-5,2.239-5,5s2.238,5,5,5h79.936c2.762,0,5-2.239,5-5S119.652,221.232,116.89,221.232z"/>
	<path d="M116.89,248.922h-15.184c-2.762,0-5,2.239-5,5s2.238,5,5,5h15.184c2.762,0,5-2.239,5-5S119.652,248.922,116.89,248.922z"/>
	<path d="M36.954,258.922h44.304c2.762,0,5-2.239,5-5s-2.238-5-5-5H36.954c-2.762,0-5,2.239-5,5S34.193,258.922,36.954,258.922z"/>
	<path d="M36.954,286.613h79.936c2.762,0,5-2.239,5-5s-2.238-5-5-5H36.954c-2.762,0-5,2.239-5,5S34.193,286.613,36.954,286.613z"/>
	<path d="M226.8,69.233h-37.336c-2.762,0-5,2.239-5,5s2.238,5,5,5H226.8c2.762,0,5-2.239,5-5S229.562,69.233,226.8,69.233z"/>
	<path d="M146.864,69.233c-2.762,0-5,2.239-5,5s2.238,5,5,5h17.894c2.762,0,5-2.239,5-5s-2.238-5-5-5H146.864z"/>
	<path d="M226.8,96.923h-79.937c-2.762,0-5,2.239-5,5s2.238,5,5,5H226.8c2.762,0,5-2.239,5-5S229.562,96.923,226.8,96.923z"/>
	<path d="M226.8,124.614h-79.937c-2.762,0-5,2.239-5,5s2.238,5,5,5H226.8c2.762,0,5-2.239,5-5S229.562,124.614,226.8,124.614z"/>
	<path d="M226.8,150.686h-21.999c-2.762,0-5,2.239-5,5s2.238,5,5,5H226.8c2.762,0,5-2.239,5-5S229.562,150.686,226.8,150.686z"/>
	<path d="M146.864,160.686h37.489c2.762,0,5-2.239,5-5s-2.238-5-5-5h-37.489c-2.762,0-5,2.239-5,5S144.102,160.686,146.864,160.686z
		"/>
	<path d="M226.8,178.376h-79.937c-2.762,0-5,2.239-5,5s2.238,5,5,5H226.8c2.762,0,5-2.239,5-5S229.562,178.376,226.8,178.376z"/>
	<path d="M226.8,206.066h-79.937c-2.762,0-5,2.239-5,5s2.238,5,5,5H226.8c2.762,0,5-2.239,5-5S229.562,206.066,226.8,206.066z"/>
	<path d="M270.797,231.182h21.999c2.762,0,5-2.239,5-5s-2.238-5-5-5h-21.999c-2.762,0-5,2.239-5,5S268.035,231.182,270.797,231.182z
		"/>
	<path d="M7.986,247.338c2.761,0,5-2.239,5-5V10h238.788l0.011,61.348c0,2.756,2.235,4.991,4.992,4.991h0.005
		c2.757,0,4.992-2.235,4.992-4.992V5c0-2.761-2.239-5-5-5H7.986c-2.761,0-5,2.239-5,5v237.338
		C2.986,245.1,5.224,247.338,7.986,247.338z"/>
	<path d="M319.183,192.775h-57.409v-93.73c0-2.607-1.906-4.936-4.502-5.183c-2.977-0.284-5.482,2.05-5.482,4.969l0.036,192.159
		c0,10.287,4.314,19.584,11.231,26.178l-223.889-0.002c-14.438,0-26.184-11.74-26.184-26.171v-26.657c0-2.761-2.239-5-5-5
		s-5,2.239-5,5v26.657c0,19.945,16.231,36.171,36.184,36.171l247.558,0.002c0.116,0,0.232-0.004,0.347-0.012
		c0.598,0.015,1.2,0.016,1.805,0.001c19.745-0.459,35.304-17.071,35.304-36.822v-92.562
		C324.183,195.013,321.944,192.775,319.183,192.775z M314.183,290.99c0,14.435-11.743,26.178-26.178,26.178
		s-26.179-11.744-26.18-26.269l-0.052-4.341h31.021c2.762,0,5-2.239,5-5s-2.238-5-5-5h-31.021v-17.69h31.021c2.762,0,5-2.239,5-5
		s-2.238-5-5-5h-31.021v-46.093h52.409V290.99z"/>
</g>
</svg>