<svg xmlns="http://www.w3.org/2000/svg"  viewBox="0 0 64 64" width="64px" height="64px"><rect width="22" height="40" x="36.98" y="11" fill="#e3f2ff" rx="2" ry="2"/><path fill="#ed7899" d="M36.82,57.95a1.05,1.05,0,0,1-1.24,1h0L4.89,53.57A2.1,2.1,0,0,1,3.15,51.5v-41A2.1,2.1,0,0,1,4.89,8.43L35.58,3a1.05,1.05,0,0,1,1.24,1Z"/><path fill="#e0678f" d="M7,30a4,4,0,0,0-4,4L3.15,51.5a2.1,2.1,0,0,0,1.74,2.07L35.58,59h0a1.05,1.05,0,0,0,1.24-1L37,34a4,4,0,0,0-4-4Z"/><path fill="#f283a5" d="M36.44,3.25A1,1,0,0,0,35.58,3L4.89,8.43A2.1,2.1,0,0,0,3.15,10.5v4a2.1,2.1,0,0,1,1.74-2.07L35.58,7a1.05,1.05,0,0,1,1.24,1v-4A1,1,0,0,0,36.44,3.25Z"/><path fill="#c5e4fa" d="M36.98 11H42.98V51H36.98z"/><path fill="#ffeb9b" d="M37 40H40.91V45H37z"/><path fill="#ed7899" d="M41 37H44.97V45H41z"/><path fill="#83dbbe" d="M44.97 41H49V45H44.97z"/><path fill="#72caaf" d="M37.22,19.47A8,8,0,1,1,37,30.29"/><path fill="#ed7899" d="M43 17L43 25 48.4 30.4 51.35 25.04 48.74 19.41 43 17z"/><path fill="#8d6c9f" d="M57,10H38V5.38a3,3,0,0,0-3.52-3L5.3,7.58A4,4,0,0,0,2,11.52v39a4,4,0,0,0,3.3,3.94l29.17,5.15h0a3,3,0,0,0,.52,0,3,3,0,0,0,3-3V52H57a3,3,0,0,0,3-3V13A3,3,0,0,0,57,10ZM50,25a7,7,0,0,1-1.37,4.14L44,24.5V18.08A7,7,0,0,1,50,25Zm-7.83.36a1,1,0,0,0,.23.37l4.84,4.84A7,7,0,0,1,38,29.88V20.11a6.92,6.92,0,0,1,4-2v6.75A1,1,0,0,0,42.17,25.36ZM42,40V38h2v6H42Zm6,4H46V42h2Zm-8,0H38V41h2ZM36,56.62a1,1,0,0,1-1.17,1h0L5.65,52.45a2,2,0,0,1-1.65-2v-39a2,2,0,0,1,1.65-2L34.83,4.4a1,1,0,0,1,1.17,1V56.62ZM58,49a1,1,0,0,1-1,1H38V46H53a1,1,0,0,0,1-1,1,1,0,0,0-1-1H50V41a1,1,0,0,0-1-1H46V37a1,1,0,0,0-1-1H41a1,1,0,0,0-1,1v2H38V32.47a9,9,0,1,0,0-14.95V12H57a1,1,0,0,1,1,1Z"/><path fill="#faefde" d="M21,20H15a1,1,0,0,0-1,1V41a1,1,0,0,0,2,0V34h5a5,5,0,0,0,5-5V25A5,5,0,0,0,21,20Zm3,9a3,3,0,0,1-3,3H16V22h5a3,3,0,0,1,3,3Z"/></svg>